<?xml version="1.0" encoding="utf-8"?>
<!-- Generator: Adobe Illustrator 21.1.0, SVG Export Plug-In . SVG Version: 6.00 Build 0)  -->
<svg version="1.1" id="Calque_1" xmlns="http://www.w3.org/2000/svg" xmlns:xlink="http://www.w3.org/1999/xlink" x="0px" y="0px"
	 viewBox="0 0 58.7 78" style="enable-background:new 0 0 58.7 78;" xml:space="preserve">
<style type="text/css">
	.st0{filter:url(#Adobe_OpacityMaskFilter);}
	.st1{fill:#FFFFFF;}
	.st2{mask:url(#mask-4_2_);fill:#FFFFFF;}
</style>
<g>
	<g>
		<g id="Group-56" transform="translate(251.763676, 0.707206)">
			<g id="Clip-55">
			</g>
			<defs>
				<filter id="Adobe_OpacityMaskFilter" filterUnits="userSpaceOnUse" x="-251.8" y="-0.7" width="58.7" height="78">
					<feColorMatrix  type="matrix" values="1 0 0 0 0  0 1 0 0 0  0 0 1 0 0  0 0 0 1 0"/>
				</filter>
			</defs>
			<mask maskUnits="userSpaceOnUse" x="-251.8" y="-0.7" width="58.7" height="78" id="mask-4_2_">
				<g class="st0">
					<polygon id="path-3_2_" class="st1" points="-193,-0.7 -251.8,-0.7 -251.8,77.3 -193,77.3 					"/>
				</g>
			</mask>
			<path id="Fill-54" class="st2" d="M-220.1,55.9C-220.1,55.9-220.1,55.9-220.1,55.9c0,0,0.2-1.6,0.2-1.6c3.6,1.1,6.2,4.4,6.2,8.3
				v12.5c0,0-0.9,0.1-1.3,0.2V62.8C-215.1,59.6-217.2,56.8-220.1,55.9L-220.1,55.9z M-225.2,52.2c0,0,0.2,1.3,0.2,1.3
				c-3.5,1-6.1,3.9-6.7,7.6c-2.7-0.6-6.3-1.4-10.7-3.4l0.3-1.8c1.4,0.5,3.1,1.1,5.2,1.6l0.1-0.7c-2.1-0.6-3.8-1.1-5.2-1.6
				c0.1-0.4,0.2-1.3,0.3-2c2,0.6,4.6,1.3,7.7,1.9l0.1-0.7c-3.1-0.6-5.8-1.3-7.7-1.9l4.2-28.5c1.5-0.6,3.1-1.1,4.7-1.5l-0.1-0.7
				c-1.5,0.4-3,0.8-4.4,1.4l0.4-2.4c2.2-0.7,4.5-1.3,6.8-1.7h0v0l-0.1-0.7c-2.2,0.4-4.4,0.9-6.5,1.6c0,0,0.3-1.9,0.3-1.9l-0.6-2.1
				c0.7-0.2,1.5-0.4,2.2-0.6l0.6,1.9c0.6-0.2,1.3-0.3,2.1-0.5l-0.4-1.9c0.7-0.1,1.5-0.3,2.2-0.4l0.4,1.9c0.7-0.1,1.4-0.2,2.1-0.2
				l-0.2-2c0.8-0.1,1.5-0.1,2.3-0.2l0.2,2c0.7,0,1.4-0.1,2.1-0.1v-2c0.4,0,1.1,0,1.1,0c0.4,0,0.8,0,1.1,0v2c0.7,0,1.4,0,2.1,0.1
				l0.2-2c0.8,0,1.5,0.1,2.3,0.2l-0.2,2c0.7,0.1,1.4,0.2,2.1,0.2l0.4-1.9c0.8,0.1,1.5,0.2,2.2,0.4l-0.4,1.9c0.7,0.1,1.4,0.3,2.1,0.5
				l0.6-1.9c0.8,0.2,1.5,0.4,2.2,0.6l-0.6,2.1c0,0,0.3,1.9,0.3,1.9c-2.1-0.7-4.3-1.2-6.5-1.6l-0.1,0.7v0h0c2.3,0.4,4.6,1,6.8,1.7
				l0.4,2.4c-1.4-0.5-2.9-1-4.4-1.4l-0.1,0.7c1.6,0.4,3.2,0.9,4.7,1.5l4.2,28.5c-1.9,0.6-4.6,1.3-7.7,1.9l0.1,0.7
				c3.1-0.6,5.8-1.3,7.7-1.9c0.1,0.7,0.2,1.5,0.3,2c-1.3,0.5-3.1,1.1-5.2,1.6l0.1,0.7c2-0.5,3.8-1.1,5.2-1.6l0.3,1.8
				c-4.3,2-8,2.8-10.7,3.4c-0.6-3.7-3.2-6.6-6.7-7.6c0,0,0.2-1.3,0.2-1.3H-225.2z M-221.1,57.9h-2.6l-0.7-4.9h3.9L-221.1,57.9z
				 M-224.7,55.9c-2.9,1-5,3.7-5,7v12.5c-0.4-0.1-1.3-0.2-1.3-0.2V62.6c0-3.9,2.6-7.2,6.2-8.3C-224.9,54.3-224.7,55.9-224.7,55.9
				C-224.7,55.9-224.7,55.9-224.7,55.9L-224.7,55.9z M-249.1,69.7l1.1-1.8c3.7,1.8,7.7,3.1,11.7,4.1l0.2-0.7
				c-3.9-0.9-7.8-2.3-11.5-4l1.2-2c1.9,0.9,3.8,1.6,5.8,2.3l0.2-0.7c-1.9-0.6-3.8-1.4-5.6-2.2l1.1-1.8c2.7,1.2,5.5,2.2,8.3,3
				l0.2-0.7c-2.8-0.7-5.5-1.7-8.1-2.9l1.2-1.9c3.6,1.6,7.5,2.8,11.5,3.6c0,0.3,0,11.2,0,11.2C-237.8,74.1-243.6,72.3-249.1,69.7
				L-249.1,69.7z M-238.6,13.8c-0.3-0.5-0.6-1-0.9-1.5c2.3-0.8,4.6-1.4,7-1.8l-0.1-0.7c-2.4,0.5-4.9,1.1-7.2,1.9
				c0,0-0.6-1.1-0.9-1.6c0.7-0.2,1.3-0.4,2-0.6l-0.2-0.7c-0.7,0.2-1.4,0.4-2.1,0.7c0,0-1.2-2.3-2.3-4.7c1.7-0.6,3.5-1.1,5.2-1.6
				l1.1,4.8c0,0,2.9-0.8,5.7-1.2c-0.2-0.9-0.9-4.8-0.9-4.8c2.2-0.4,4.5-0.6,6.8-0.7l0.1,4.9c0,0,1.7-0.1,2.9-0.1
				c1.1,0,2.9,0.1,2.9,0.1l0.1-4.9c2.3,0.1,4.5,0.3,6.8,0.7c0,0-0.7,3.9-0.9,4.8c2.7,0.4,5.7,1.2,5.7,1.2l1.1-4.8
				c1.8,0.5,3.5,1,5.2,1.6c-1.1,2.4-2.3,4.7-2.3,4.7c-0.7-0.2-1.4-0.5-2.1-0.7l-0.2,0.7c0.7,0.2,1.3,0.4,2,0.6
				c-0.3,0.5-0.9,1.6-0.9,1.6c-2.4-0.8-4.8-1.4-7.2-1.9l-0.1,0.7c2.4,0.4,4.7,1.1,7,1.8c-0.3,0.5-0.6,1-0.9,1.5
				c-4.7-1.5-10.1-2.3-15.7-2.4c0,0-0.8,0-0.8,0C-228.5,11.5-233.8,12.4-238.6,13.8L-238.6,13.8z M-200.3,62.2
				c-2.6,1.2-5.3,2.1-8.1,2.9l0.2,0.7c2.8-0.8,5.6-1.8,8.3-3l1.1,1.8c-1.8,0.8-3.7,1.6-5.6,2.2l0.2,0.7c2-0.7,3.9-1.4,5.8-2.3l1.2,2
				c-3.7,1.7-7.5,3.1-11.5,4l0.2,0.7c4-0.9,8-2.3,11.7-4.1l1.1,1.8c-5.5,2.6-11.3,4.4-17.3,5.3c0,0,0-10.9,0-11.2
				c4-0.7,7.8-1.9,11.5-3.6L-200.3,62.2z M-193,70.4l-7.5-12l-6-40.6c0.3-0.4,0.5-0.8,0.8-1.2c0.4-0.7,0.9-1.4,1.3-2.1
				c3.3-5.7,5.5-10.7,5.5-10.7s-4.2-1.7-9-2.8c-0.1,0.5-1.2,5-1.2,5c-0.8-0.2-1.5-0.3-2.3-0.5l0.9-5.1c0,0-4.8-1-10.6-1.1
				c0,1.1-0.1,5.2-0.1,5.2c-0.2,0-1.2,0-1.2,0s-1,0-1.2,0c0,0-0.1-4.1-0.1-5.2c-5.7,0.1-10.6,1.1-10.6,1.1l1,5.1
				c-0.8,0.1-1.5,0.3-2.3,0.5c0,0-1.1-4.5-1.2-5c-4.8,1.1-9,2.8-9,2.8s2.2,5.1,5.5,10.7c0.4,0.7,0.8,1.4,1.3,2.1
				c0.3,0.4,0.5,0.8,0.8,1.2l-6,40.6l-7.5,12c0,0,10.3,5.8,23.9,6.9V62.8c0-2.3,1.4-4.3,3.5-5.1c0,0,0.1,0.9,0.1,0.9h3.9
				c0,0,0.1-0.9,0.1-0.9c2,0.8,3.5,2.8,3.5,5.1v14.5C-203.4,76.2-193,70.4-193,70.4L-193,70.4z"/>
		</g>
		<path id="Fill-57" class="st1" d="M29.8,34.6c0-0.4,0-3.4,0-3.8c0.9,0,2.7,0.1,4,0.1c0,0.2,0.1,3.1,0.2,3.8H29.8z M29.8,26.2
			c1.2,0,2.4,0,3.9,0.2c0,0,0.2,3.6,0.2,3.8c-1.4,0-3.1-0.1-4-0.1C29.8,29.1,29.8,26.3,29.8,26.2L29.8,26.2z M29.7,20.3L29.7,20.3
			c3.5,3.2,3.8,5,3.8,5.3c-0.9-0.1-2.6-0.1-3.8-0.1C29.8,23.9,29.7,22.3,29.7,20.3L29.7,20.3z M29,25.5c-1.2,0-2.9,0.1-3.8,0.1
			c0-0.3,0.4-2.1,3.8-5.3l0,0C29,22.3,29,23.9,29,25.5L29,25.5z M29,30.1c-0.9,0-2.6,0.1-4,0.1c0-0.2,0.2-3.8,0.2-3.8
			c1.5-0.1,2.7-0.1,3.9-0.2C29,26.3,29,29.1,29,30.1L29,30.1z M28.9,34.6h-4.2c0-0.6,0.2-3.6,0.2-3.8c1.4,0,3.1-0.1,4-0.1
			C29,31.2,29,34.2,28.9,34.6L28.9,34.6z M37.7,34.6h-1.8c0,0-0.3-5.1-0.5-7.6c0.6,0.1,1.1,0.1,1.7,0.2c0-0.2-0.1-1.4-0.1-1.8
			c-0.6-0.1-1.1-0.1-1.7-0.2c-1-3.7-5.9-7.5-5.9-7.5s-4.9,3.8-5.9,7.5c-0.6,0.1-1.2,0.1-1.7,0.2c0,0.4-0.1,1.6-0.1,1.8
			c0.6-0.1,1.1-0.1,1.7-0.2c-0.2,2.5-0.5,7.6-0.5,7.6H21c0,0-0.1,1.2-0.1,1.8c0.6,0,7.4,0,7.4,0s0,0.6,0,1.1c0.1,0,2,0,2.1,0
			c0-0.6,0-1.1,0-1.1s6.8,0,7.4,0C37.8,35.8,37.7,34.6,37.7,34.6L37.7,34.6z"/>
		<path id="Fill-59" class="st1" d="M37.8,40.6c0.1,1.8,0.2,3.4,0.3,4.9c-0.8,0.1-1.6,0.2-2.6,0.3c0,0,0-0.2,0-0.3
			C35.4,42.6,37.8,40.6,37.8,40.6 M38.4,50.2L38.4,50.2c-0.9,0.1-1.8,0.2-2.7,0.3c-0.1-1.3-0.1-2.6-0.2-3.9c1-0.1,1.8-0.2,2.6-0.3
			C38.3,47.6,38.3,48.9,38.4,50.2 M41.4,44.7c0,0.1,0,0.3,0,0.3c-0.9,0.2-1.7,0.3-2.5,0.4c-0.1-1.5-0.2-3-0.3-4.8
			C39.5,41.2,41.2,42.4,41.4,44.7 M41.8,49.7c-0.9,0.2-1.7,0.3-2.6,0.4c-0.1-1.3-0.2-2.6-0.3-3.9c0.8-0.1,1.6-0.2,2.5-0.4
			C41.6,47,41.7,48.3,41.8,49.7 M33.7,45.6c0.1,2.3,0.1,4.6,0.2,6.9c3.3-0.2,6.7-0.7,10-1.3c-0.2-2.3-0.5-4.5-0.7-6.8
			c-0.5-4.4-4.7-5.9-5.2-6.1C37.6,38.5,33.6,41.1,33.7,45.6"/>
		<path id="Fill-61" class="st1" d="M23.2,45.5c0,0.1,0,0.3,0,0.3c-1-0.1-1.8-0.2-2.6-0.3c0.1-1.5,0.2-3,0.3-4.9
			C20.9,40.6,23.3,42.6,23.2,45.5 M23,50.5c-0.9-0.1-1.8-0.2-2.6-0.3l0,0c0.1-1.3,0.2-2.6,0.2-3.9c0.8,0.1,1.6,0.2,2.6,0.3
			C23.1,47.8,23,49.2,23,50.5 M19.9,45.4c-0.8-0.1-1.6-0.2-2.5-0.4c0,0,0-0.3,0-0.3c0.2-2.3,1.8-3.5,2.8-4.1
			C20.1,42.4,20,43.9,19.9,45.4 M19.6,50.1c-0.9-0.1-1.7-0.3-2.6-0.4c0.1-1.3,0.2-2.6,0.3-3.9c0.9,0.2,1.7,0.3,2.5,0.4
			C19.7,47.5,19.7,48.8,19.6,50.1 M20.7,38.3c-0.5,0.2-4.7,1.6-5.2,6.1c-0.2,2.3-0.5,4.5-0.7,6.8c3.3,0.7,6.6,1.1,10,1.3
			c0.1-2.3,0.1-4.6,0.2-6.9C25.1,41.1,21.2,38.5,20.7,38.3"/>
	</g>
</g>
</svg>
