<svg id="Calque_1" data-name="Calque 1" xmlns="http://www.w3.org/2000/svg" viewBox="0 0 25.11 19.36"><title>quotes</title><g id="Page-1"><g id="chef-TdA"><g id="_-copy" data-name="‘-copy" style="isolation:isolate"><g style="isolation:isolate"><path d="M9.6,2A14.37,14.37,0,0,0,6.92,3.8,11.05,11.05,0,0,0,4.64,6.36a6,6,0,0,0-1,3.32,7.69,7.69,0,0,0,.4,2.72l.36-.16L5,12a5.62,5.62,0,0,1,.64-.12,6.69,6.69,0,0,1,.8,0,2.75,2.75,0,0,1,2.32,1,3.6,3.6,0,0,1,.8,2.24A4.34,4.34,0,0,1,8.44,18.2a4.11,4.11,0,0,1-3.16,1.16,4.8,4.8,0,0,1-3.84-1.68A6.28,6.28,0,0,1,0,13.44,10.9,10.9,0,0,1,1.52,7.56,16.2,16.2,0,0,1,5,3.52,17.31,17.31,0,0,1,8.84,1.08Q10.72.24,11.44,0l.32,1Q11,1.36,9.6,2Z" fill="#c8ae88"/></g></g></g></g><g id="Page-1-2" data-name="Page-1"><g id="chef-TdA-2" data-name="chef-TdA"><g id="_-copy-2" data-name="‘-copy" style="isolation:isolate"><g style="isolation:isolate"><path d="M23,2A14.44,14.44,0,0,0,20.27,3.8,11.08,11.08,0,0,0,18,6.36a6,6,0,0,0-1,3.32,7.68,7.68,0,0,0,.4,2.72l.36-.16.52-.24a5.66,5.66,0,0,1,.64-.12,6.7,6.7,0,0,1,.8,0,2.75,2.75,0,0,1,2.32,1,3.6,3.6,0,0,1,.8,2.24,4.34,4.34,0,0,1-1.08,3.08,4.11,4.11,0,0,1-3.16,1.16,4.8,4.8,0,0,1-3.84-1.68,6.28,6.28,0,0,1-1.44-4.24,10.9,10.9,0,0,1,1.52-5.88,16.19,16.19,0,0,1,3.48-4,17.32,17.32,0,0,1,3.84-2.44Q24.07.24,24.79,0l.32,1Q24.31,1.36,23,2Z" fill="#c8ae88"/></g></g></g></g></svg>